PathFileType	4	(X/Y/Z)	 s10c0402.trc
DataRate	CameraRate	NumFrames	NumMarkers	Units	OrigDataRate	OrigDataStartFrame	OrigNumFrames
200	200	4	49	mm	200	1001	2000
Frame#	Time	racr			lacr			c7			jug			rlel			rdr			llel			ldr			s2			lic			ric			lasi			rasi			rpsi			lpsi			rgt			lgt			rth1			rth2			rth3			rth4			rlfc			rmfc			rsh1			rsh2			rsh3			rsh4			rlmal			rmmal			rcal			rtoe			rmt5			lth1			lth2			lth4			lth3			llfc			lmfc			llmal			lcal			lmt5			lsh1			lsh2			lsh3			lsh4			ltoe			SBIKE			LBIKE			RBIKE			
		X1	Y1	Z1	X2	Y2	Z2	X3	Y3	Z3	X4	Y4	Z4	X5	Y5	Z5	X6	Y6	Z6	X7	Y7	Z7	X8	Y8	Z8	X9	Y9	Z9	X10	Y10	Z10	X11	Y11	Z11	X12	Y12	Z12	X13	Y13	Z13	X14	Y14	Z14	X15	Y15	Z15	X16	Y16	Z16	X17	Y17	Z17	X18	Y18	Z18	X19	Y19	Z19	X20	Y20	Z20	X21	Y21	Z21	X22	Y22	Z22	X23	Y23	Z23	X24	Y24	Z24	X25	Y25	Z25	X26	Y26	Z26	X27	Y27	Z27	X28	Y28	Z28	X29	Y29	Z29	X30	Y30	Z30	X31	Y31	Z31	X32	Y32	Z32	X33	Y33	Z33	X34	Y34	Z34	X35	Y35	Z35	X36	Y36	Z36	X37	Y37	Z37	X38	Y38	Z38	X39	Y39	Z39	X40	Y40	Z40	X41	Y41	Z41	X42	Y42	Z42	X43	Y43	Z43	X44	Y44	Z44	X45	Y45	Z45	X46	Y46	Z46	X47	Y47	Z47	X48	Y48	Z48	X49	Y49	Z49	
1001	5.0050	686.433529	1347.736328	-31.059736	694.952053	1332.444403	-324.095979	678.040513	1355.972072	-171.023194	664.982885	1209.726169	-171.740150	561.344623	1105.195516	71.896795	627.414588	911.121980	3.296930	564.886262	1105.522533	-455.225835	652.622354	912.453452	-393.580502	144.321215	1174.620244	-208.406790	314.296432	1171.378614	-354.946425	312.476051	1159.249212	-58.914202	334.177939	1077.130995	-327.277918	296.708564	1074.474216	-71.526861	186.251335	1223.230752	-143.352101	201.999015	1229.318114	-253.784157	177.915692	1065.373346	-22.181520	221.207942	1054.882496	-400.767762	248.494086	933.164679	-0.773304	323.852038	885.077388	-6.757831	362.454514	809.248111	-11.856406	350.724706	911.631751	-8.573520	447.341996	726.977507	-26.040125	451.150050	721.127394	-142.124199	378.644902	634.030688	0.420121	354.829548	549.930661	-15.991434	293.677523	488.839573	-21.133179	380.574039	540.020571	-43.655847	237.930003	395.525531	-39.533008	262.371119	412.996854	-118.896971	179.315583	377.394983	-87.602581	418.531831	335.226653	-80.394056	333.165227	315.683800	-20.073751	280.019664	931.049606	-409.810224	336.223681	867.508737	-391.547766	364.549960	884.227152	-376.750390	353.691105	780.819594	-384.329066	382.572088	673.039980	-368.100741	377.021469	660.523510	-252.634325	66.501102	454.728230	-387.604449	19.086241	486.076942	-340.906473	37.450571	307.167300	-395.766326	274.571041	613.656218	-409.580667	224.797499	544.023257	-396.535888	143.129360	505.748905	-398.647409	242.918689	525.201119	-368.857295	89.276752	241.433616	-335.182468	-163.983468	825.292181	-214.299699	-78.041142	81.730754	-423.290918	-102.631034	80.547036	-24.392775	
1002	5.0100	684.707456	1348.499497	-31.806000	695.752444	1333.303662	-325.210620	677.661140	1356.510066	-171.855358	665.449926	1210.616604	-174.034132	560.427227	1105.351611	69.677302	627.452783	911.220844	2.871464	565.680473	1105.696456	-456.139545	652.546178	912.382546	-393.016279	144.372171	1174.862325	-205.690108	312.642274	1171.589314	-354.392702	314.550991	1158.164858	-58.717515	332.635515	1077.273794	-326.599405	298.022490	1073.029902	-70.952663	186.478025	1223.074221	-140.325571	201.444699	1229.638409	-251.640535	179.065862	1063.689125	-20.959170	220.747461	1055.602886	-398.778583	248.116633	928.624711	-0.601465	321.639412	878.410487	-7.120800	357.404331	801.115893	-13.408407	349.399510	903.869524	-8.914897	438.959151	715.195536	-28.258790	442.007795	709.752201	-143.284028	372.131000	620.938790	-1.428788	349.211252	536.665089	-18.694099	289.275878	474.705875	-22.711462	373.727299	527.335811	-47.015702	235.263416	382.650578	-40.076650	259.104128	400.179513	-119.826788	176.771098	363.817012	-88.094736	416.752547	325.777428	-79.775067	331.424989	304.178929	-20.324158	281.754945	932.857024	-408.281125	338.716711	870.155169	-389.434104	367.470323	887.843874	-375.699858	359.278271	784.762281	-383.630048	389.933888	677.011242	-366.078672	383.506685	665.834046	-249.547166	70.718623	464.463523	-387.214191	23.822475	496.598690	-340.472904	38.521540	317.567700	-395.749383	282.898862	617.654352	-406.951222	231.508771	549.411129	-394.509927	149.189359	512.732770	-397.689364	249.740506	531.219473	-366.605769	89.180895	250.627270	-335.208400	-166.156704	824.376028	-216.887672	-77.995471	81.686801	-423.250672	-102.641670	80.577159	-24.372594	
1003	5.0150	683.023877	1349.140789	-32.580675	696.615922	1334.124556	-326.302744	677.028939	1356.866684	-171.958351	665.753082	1211.356472	-175.988827	559.417590	1105.544036	67.657447	627.483156	911.230514	2.689803	566.321716	1105.451171	-455.962953	652.493207	912.329982	-392.472404	144.450234	1174.807748	-202.942720	311.076175	1171.581295	-353.724588	316.522539	1157.131754	-58.341545	331.162681	1077.304651	-325.777128	299.512235	1071.457568	-70.463859	188.912440	1220.808962	-140.294209	200.969122	1229.534759	-249.802951	180.328443	1061.724733	-19.717106	220.299478	1055.967999	-396.805684	248.148245	924.393314	0.126641	319.581914	871.625217	-7.453657	352.616972	793.004182	-14.830514	348.392662	896.283827	-8.919006	430.565174	703.524722	-30.694985	432.515918	698.131331	-144.430126	365.240129	608.121828	-3.459400	343.284399	523.748631	-21.008048	284.309366	460.637010	-24.042524	367.587431	514.827166	-49.749312	232.099640	370.175422	-40.675328	256.183642	387.919217	-120.566283	173.940251	350.825505	-88.476491	414.265663	314.873917	-80.734898	329.235435	293.054450	-20.414267	283.138574	934.499548	-406.521388	341.673918	873.057387	-388.142270	370.155500	891.284486	-374.575463	363.880965	787.971483	-382.300241	397.213796	681.190818	-364.067288	389.542739	671.213060	-246.418526	75.053968	474.425910	-386.885129	28.632644	507.337472	-340.771184	40.493037	328.258887	-395.647260	291.084477	621.978553	-404.698955	238.343905	554.937690	-392.684444	155.226151	519.749705	-396.668483	255.673853	536.806863	-364.041229	89.846528	260.072616	-335.090849	-167.526218	823.813905	-218.633771	-77.879331	81.937212	-423.514099	-102.634289	80.552728	-24.381177	
1004	5.0200	681.381229	1349.676863	-33.499539	697.354815	1334.861543	-327.448805	676.466358	1357.488606	-172.926845	665.875249	1212.099543	-178.272683	558.361486	1105.662989	65.486943	627.511980	911.204630	2.573073	567.294563	1105.700522	-456.866543	652.455075	912.325936	-392.060856	144.587766	1175.027206	-200.707783	309.612662	1171.386961	-352.979036	318.619272	1155.930632	-57.990691	329.711964	1076.937878	-324.936349	301.112246	1069.736552	-69.913795	190.902797	1220.018970	-141.052281	200.392358	1229.200202	-247.968654	181.781361	1059.171892	-18.510521	219.876097	1056.111823	-394.810466	248.152331	919.913316	0.558573	317.623104	864.563962	-7.835570	347.828417	784.841771	-16.425935	347.366847	888.122076	-9.534778	421.957639	691.965452	-33.142169	423.703213	686.903779	-145.315372	357.711327	596.219866	-5.537599	336.879348	511.470886	-22.946457	278.980051	447.531496	-25.078227	362.032107	503.000504	-51.592814	228.712961	357.969552	-41.448679	251.203632	375.398535	-122.011784	170.867793	338.633401	-88.957465	411.405115	304.639625	-80.837196	326.538086	282.152829	-20.524914	284.601476	936.179312	-404.999393	344.403607	875.814552	-386.881369	372.583684	894.639059	-373.569151	368.196580	791.056290	-380.961990	404.267215	685.159659	-362.306821	395.399534	676.040875	-242.979387	79.335968	484.333265	-386.341758	33.196232	517.727013	-340.272776	42.905394	338.668277	-395.438123	299.156643	626.367624	-402.603027	245.007520	560.431959	-390.644446	161.774562	526.960651	-395.841238	260.162927	541.777677	-360.649725	91.466204	269.821162	-334.960166	-167.652055	823.744937	-218.801839	-77.896950	81.934390	-423.502556	-102.619332	80.555565	-24.384598	
